<?xml version="1.0" standalone="no"?>
<!DOCTYPE svg PUBLIC "-//W3C//DTD SVG 20010904//EN"
 "http://www.w3.org/TR/2001/REC-SVG-20010904/DTD/svg10.dtd">
<svg version="1.0" xmlns="http://www.w3.org/2000/svg"
 width="967.000000pt" height="482.000000pt" viewBox="0 0 967.000000 482.000000"
 preserveAspectRatio="xMidYMid meet">

<g transform="translate(0.000000,482.000000) scale(0.100000,-0.100000)"
fill="#000000" stroke="none">
<path d="M815 2725 l-25 -24 0 -436 c0 -288 4 -443 11 -456 21 -41 86 -44 111
-5 4 6 8 64 8 129 l0 117 68 0 67 0 135 -135 c117 -117 139 -135 167 -135 34
0 63 29 63 64 0 10 -42 61 -95 115 -52 54 -95 100 -95 103 0 4 24 18 54 31 69
32 131 94 165 166 22 47 26 70 26 141 0 96 -25 165 -84 232 -79 90 -172 118
-394 118 -154 0 -158 -1 -182 -25z m425 -135 c69 -39 104 -96 108 -179 6 -97
-29 -160 -113 -204 -35 -18 -57 -21 -175 -22 l-135 0 -3 205 c-1 112 0 211 3
218 4 11 32 13 138 10 119 -3 136 -6 177 -28z"/>
<path d="M1635 2738 c-11 -6 -23 -16 -27 -22 -4 -6 -8 -212 -8 -458 0 -500 -3
-482 69 -476 56 5 61 25 60 230 0 157 2 181 20 215 28 54 57 82 115 109 120
56 244 6 285 -115 6 -20 11 -106 11 -213 0 -108 4 -187 11 -199 23 -44 103
-40 115 6 3 13 4 113 2 222 -4 179 -6 203 -27 248 -35 77 -84 130 -153 164
-53 27 -72 31 -143 31 -69 0 -90 -4 -131 -26 -27 -14 -61 -37 -76 -52 l-28
-26 0 163 c0 159 -1 162 -25 186 -27 28 -40 30 -70 13z"/>
<path d="M3996 2729 l-26 -20 0 -448 c0 -421 1 -449 18 -464 27 -25 78 -22 96
5 13 18 16 56 16 201 0 138 3 186 16 215 47 113 192 172 299 123 101 -45 125
-116 125 -362 0 -195 2 -202 62 -202 56 0 59 14 56 248 l-3 211 -33 66 c-58
118 -139 170 -273 176 -76 3 -92 1 -136 -22 -28 -13 -64 -37 -82 -51 l-31 -27
0 162 c0 158 -1 161 -25 185 -29 30 -45 31 -79 4z"/>
<path d="M16 2715 c-14 -21 -16 -76 -16 -460 0 -422 1 -436 20 -455 25 -25 72
-26 93 -2 14 15 17 49 19 205 l3 186 215 -199 c118 -110 225 -202 238 -206 49
-14 95 22 85 68 -4 13 -145 149 -400 382 -24 22 -43 43 -43 47 0 5 92 88 205
186 188 162 205 180 205 209 0 65 -58 84 -114 38 -40 -34 -131 -114 -270 -236
-60 -54 -114 -98 -118 -98 -4 0 -8 71 -8 158 0 180 -7 202 -64 202 -25 0 -38
-7 -50 -25z"/>
<path d="M3286 2684 c-9 -8 -19 -26 -22 -38 -3 -13 -4 -153 -2 -312 l3 -289
31 -65 c63 -133 166 -201 314 -208 69 -3 96 0 141 17 109 41 164 125 107 165
-31 22 -36 21 -98 -19 -50 -32 -60 -35 -131 -35 -83 0 -119 13 -164 58 -56 54
-69 103 -73 260 l-4 142 160 0 c139 0 163 2 182 18 30 24 30 70 0 94 -19 16
-43 18 -181 18 l-159 0 0 88 c0 73 -3 92 -18 105 -23 21 -66 22 -86 1z"/>
<path d="M4975 2494 c-55 -19 -111 -67 -138 -117 -21 -40 -22 -56 -25 -295 -4
-288 -1 -302 63 -302 62 0 65 13 65 282 l0 238 33 35 c43 48 89 55 137 23 58
-39 60 -49 60 -309 0 -216 2 -237 18 -252 27 -25 78 -22 96 5 13 19 16 62 16
264 0 228 1 243 21 267 11 15 37 32 58 38 49 15 103 -7 131 -53 18 -31 20 -50
20 -270 0 -202 2 -239 16 -252 18 -19 75 -21 92 -4 9 9 12 84 12 275 0 239 -2
267 -19 301 -40 78 -116 130 -206 139 -43 5 -62 1 -106 -20 -30 -15 -62 -32
-71 -39 -15 -10 -21 -10 -35 0 -81 58 -161 73 -238 46z"/>
<path d="M2472 2483 c-38 -7 -44 -44 -40 -248 3 -181 5 -193 30 -247 53 -115
172 -197 298 -206 81 -5 134 9 199 52 28 19 53 31 55 28 2 -4 4 -68 5 -142 1
-124 3 -136 22 -152 29 -25 55 -22 84 7 l25 24 0 419 c0 385 -1 421 -17 440
-24 27 -53 34 -83 19 l-25 -13 -5 -194 c-5 -189 -6 -196 -32 -240 -33 -57 -62
-83 -116 -103 -115 -45 -241 6 -293 118 -16 34 -19 66 -19 218 0 175 0 178
-25 202 -13 14 -28 24 -32 24 -4 -1 -18 -4 -31 -6z"/>
</g>
</svg>
